<svg width="100" height="100" viewBox="0 0 100 100" fill="none" xmlns="http://www.w3.org/2000/svg">
<path d="M80.001 53.9968C80.0009 63.3849 72.3897 70.9957 63.001 70.9957H0.000976562C0.000976562 61.6076 7.61227 53.9969 17.001 53.9968H80.001Z" fill="#FFCA28"/>
<path d="M0 98.3671L41.2423 9.92828C45.2102 1.41964 55.3249 -2.26156 63.8341 1.70608L22.5917 90.1449C18.6238 98.6536 8.50918 102.335 0 98.3671Z" fill="#E53935"/>
<path d="M46.0569 0.269293C55.3027 -1.36259 64.1178 4.80977 65.7464 14.0555L77.889 82.9945H83.0013C92.39 82.9945 100.001 90.6053 100.001 99.9934H78.3343C70.0499 100.224 62.6283 94.3585 61.1478 85.9523L46.0569 0.269293Z" fill="#43A047"/>
<path d="M20.0013 16.9989C20.0013 7.61068 27.6119 0 37.0002 0H100.001C100.001 9.38825 92.3906 16.9989 83.0023 16.9989H20.0013Z" fill="#42A5F5"/>
<path d="M45.0013 70.9955H63.0023C72.3906 70.9955 80.001 63.385 80.001 53.9968L45.0013 53.9966V70.9955Z" fill="#FFCA28"/>
</svg>
