<svg width="24" height="24" viewBox="0 0 24 24" fill="none" xmlns="http://www.w3.org/2000/svg">
<path d="M24 0C24 2.25316 22.1731 4.08008 19.9199 4.08008H15.9043L18.6934 19.918H19.9199C22.1732 19.918 23.9999 21.745 24 23.998H18.7998C16.8117 24.0532 15.0311 22.6453 14.6758 20.6279L12.2666 6.95508L9.4668 12.96H13.2002C13.2001 15.2132 11.9436 17.04 10.3945 17.04H7.56445L5.42188 21.6348C4.46951 23.6766 2.0421 24.5596 0 23.6074L3.0625 17.04H0C0 14.7869 1.2557 12.9602 2.80469 12.96H4.96582L9.10645 4.08008H4.7998C4.7998 1.82705 6.6269 0.000206963 8.87988 0H24Z" fill="#42A5F5"/>
</svg>
